<?xml version='1.0' encoding='utf-8'?>
<mxfile host="app.diagrams.net"><diagram name="Bệnh Viện Số"><mxGraphModel><root><mxCell id="0" /><mxCell id="1" parent="0" /><mxCell id="root1" value="Ứng dụng Bệnh Viện Số" style="rounded=1;fillColor=#dae8fc;" vertex="1" parent="1" /><mxGeometry x="80" y="0" width="200" height="60" as_="geometry" /><mxCell id="m1000" value="1. Quản lý tài khoản" style="rounded=1;fillColor=#fff2cc;" vertex="1" parent="1" /><mxGeometry x="80" y="100" width="250" height="50" as_="geometry" /><mxCell id="e1001" style="edgeStyle=orthogonalEdgeStyle;" edge="1" source="root1" target="m1000" parent="1" /><mxGeometry relative="1" as_="geometry" /><mxCell id="s1002" value="1.1 Quản lý thông tin cá nhân (BN, BS)" style="rounded=1;fillColor=#e1d5e7;" vertex="1" parent="1" /><mxGeometry x="400" y="100" width="350" height="40" as_="geometry" /><mxCell id="e1003" style="edgeStyle=orthogonalEdgeStyle;" edge="1" source="m1000" target="s1002" parent="1" /><mxGeometry relative="1" as_="geometry" /><mxCell id="s1004" value="1.2 Đổi mật khẩu (BN, BS)" style="rounded=1;fillColor=#e1d5e7;" vertex="1" parent="1" /><mxGeometry x="400" y="160" width="350" height="40" as_="geometry" /><mxCell id="e1005" style="edgeStyle=orthogonalEdgeStyle;" edge="1" source="m1000" target="s1004" parent="1" /><mxGeometry relative="1" as_="geometry" /><mxCell id="s1006" value="1.3 Liên kết bảo hiểm y tế (BN)" style="rounded=1;fillColor=#e1d5e7;" vertex="1" parent="1" /><mxGeometry x="400" y="220" width="350" height="40" as_="geometry" /><mxCell id="e1007" style="edgeStyle=orthogonalEdgeStyle;" edge="1" source="m1000" target="s1006" parent="1" /><mxGeometry relative="1" as_="geometry" /><mxCell id="s1008" value="1.4 Đăng nhập (BN, BS)" style="rounded=1;fillColor=#e1d5e7;" vertex="1" parent="1" /><mxGeometry x="400" y="280" width="350" height="40" as_="geometry" /><mxCell id="e1009" style="edgeStyle=orthogonalEdgeStyle;" edge="1" source="m1000" target="s1008" parent="1" /><mxGeometry relative="1" as_="geometry" /><mxCell id="s1010" value="1.5 Đăng ký (BN, BS)" style="rounded=1;fillColor=#e1d5e7;" vertex="1" parent="1" /><mxGeometry x="400" y="340" width="350" height="40" as_="geometry" /><mxCell id="e1011" style="edgeStyle=orthogonalEdgeStyle;" edge="1" source="m1000" target="s1010" parent="1" /><mxGeometry relative="1" as_="geometry" /><mxCell id="s1012" value="1.6 Đăng xuất (BN, BS)" style="rounded=1;fillColor=#e1d5e7;" vertex="1" parent="1" /><mxGeometry x="400" y="400" width="350" height="40" as_="geometry" /><mxCell id="e1013" style="edgeStyle=orthogonalEdgeStyle;" edge="1" source="m1000" target="s1012" parent="1" /><mxGeometry relative="1" as_="geometry" /><mxCell id="s1014" value="1.7 Cập nhật thông tin chuyên môn (BS)" style="rounded=1;fillColor=#e1d5e7;" vertex="1" parent="1" /><mxGeometry x="400" y="460" width="350" height="40" as_="geometry" /><mxCell id="e1015" style="edgeStyle=orthogonalEdgeStyle;" edge="1" source="m1000" target="s1014" parent="1" /><mxGeometry relative="1" as_="geometry" /><mxCell id="m1016" value="2. Đặt lịch khám bệnh" style="rounded=1;fillColor=#fff2cc;" vertex="1" parent="1" /><mxGeometry x="80" y="600" width="250" height="50" as_="geometry" /><mxCell id="e1017" style="edgeStyle=orthogonalEdgeStyle;" edge="1" source="root1" target="m1016" parent="1" /><mxGeometry relative="1" as_="geometry" /><mxCell id="s1018" value="2.1 Chọn chuyên khoa khám (BN)" style="rounded=1;fillColor=#e1d5e7;" vertex="1" parent="1" /><mxGeometry x="400" y="600" width="350" height="40" as_="geometry" /><mxCell id="e1019" style="edgeStyle=orthogonalEdgeStyle;" edge="1" source="m1016" target="s1018" parent="1" /><mxGeometry relative="1" as_="geometry" /><mxCell id="s1020" value="2.2 Chọn bác sĩ (BN)" style="rounded=1;fillColor=#e1d5e7;" vertex="1" parent="1" /><mxGeometry x="400" y="660" width="350" height="40" as_="geometry" /><mxCell id="e1021" style="edgeStyle=orthogonalEdgeStyle;" edge="1" source="m1016" target="s1020" parent="1" /><mxGeometry relative="1" as_="geometry" /><mxCell id="s1022" value="2.3 Chọn ngày và giờ khám (BN)" style="rounded=1;fillColor=#e1d5e7;" vertex="1" parent="1" /><mxGeometry x="400" y="720" width="350" height="40" as_="geometry" /><mxCell id="e1023" style="edgeStyle=orthogonalEdgeStyle;" edge="1" source="m1016" target="s1022" parent="1" /><mxGeometry relative="1" as_="geometry" /><mxCell id="s1024" value="2.4 Xác nhận và lưu lịch hẹn (BN)" style="rounded=1;fillColor=#e1d5e7;" vertex="1" parent="1" /><mxGeometry x="400" y="780" width="350" height="40" as_="geometry" /><mxCell id="e1025" style="edgeStyle=orthogonalEdgeStyle;" edge="1" source="m1016" target="s1024" parent="1" /><mxGeometry relative="1" as_="geometry" /><mxCell id="s1026" value="2.5 Nhận thông báo xác nhận (BN)" style="rounded=1;fillColor=#e1d5e7;" vertex="1" parent="1" /><mxGeometry x="400" y="840" width="350" height="40" as_="geometry" /><mxCell id="e1027" style="edgeStyle=orthogonalEdgeStyle;" edge="1" source="m1016" target="s1026" parent="1" /><mxGeometry relative="1" as_="geometry" /><mxCell id="m1028" value="3. Quản lý lịch hẹn" style="rounded=1;fillColor=#fff2cc;" vertex="1" parent="1" /><mxGeometry x="80" y="1100" width="250" height="50" as_="geometry" /><mxCell id="e1029" style="edgeStyle=orthogonalEdgeStyle;" edge="1" source="root1" target="m1028" parent="1" /><mxGeometry relative="1" as_="geometry" /><mxCell id="s1030" value="3.1 Xem lịch hẹn đã đặt (BN, BS)" style="rounded=1;fillColor=#e1d5e7;" vertex="1" parent="1" /><mxGeometry x="400" y="1100" width="350" height="40" as_="geometry" /><mxCell id="e1031" style="edgeStyle=orthogonalEdgeStyle;" edge="1" source="m1028" target="s1030" parent="1" /><mxGeometry relative="1" as_="geometry" /><mxCell id="s1032" value="3.2 Hủy/thay đổi lịch hẹn (BN, BS)" style="rounded=1;fillColor=#e1d5e7;" vertex="1" parent="1" /><mxGeometry x="400" y="1160" width="350" height="40" as_="geometry" /><mxCell id="e1033" style="edgeStyle=orthogonalEdgeStyle;" edge="1" source="m1028" target="s1032" parent="1" /><mxGeometry relative="1" as_="geometry" /><mxCell id="s1034" value="3.3 Nhận nhắc lịch khám (BN, BS)" style="rounded=1;fillColor=#e1d5e7;" vertex="1" parent="1" /><mxGeometry x="400" y="1220" width="350" height="40" as_="geometry" /><mxCell id="e1035" style="edgeStyle=orthogonalEdgeStyle;" edge="1" source="m1028" target="s1034" parent="1" /><mxGeometry relative="1" as_="geometry" /><mxCell id="s1036" value="3.4 Xác nhận/từ chối lịch (BS)" style="rounded=1;fillColor=#e1d5e7;" vertex="1" parent="1" /><mxGeometry x="400" y="1280" width="350" height="40" as_="geometry" /><mxCell id="e1037" style="edgeStyle=orthogonalEdgeStyle;" edge="1" source="m1028" target="s1036" parent="1" /><mxGeometry relative="1" as_="geometry" /><mxCell id="m1038" value="4. Hồ sơ bệnh án" style="rounded=1;fillColor=#fff2cc;" vertex="1" parent="1" /><mxGeometry x="80" y="1600" width="250" height="50" as_="geometry" /><mxCell id="e1039" style="edgeStyle=orthogonalEdgeStyle;" edge="1" source="root1" target="m1038" parent="1" /><mxGeometry relative="1" as_="geometry" /><mxCell id="s1040" value="4.1 Xem hồ sơ bệnh án (BN, BS)" style="rounded=1;fillColor=#e1d5e7;" vertex="1" parent="1" /><mxGeometry x="400" y="1600" width="350" height="40" as_="geometry" /><mxCell id="e1041" style="edgeStyle=orthogonalEdgeStyle;" edge="1" source="m1038" target="s1040" parent="1" /><mxGeometry relative="1" as_="geometry" /><mxCell id="s1042" value="4.2 Xem kết quả xét nghiệm (BN, BS)" style="rounded=1;fillColor=#e1d5e7;" vertex="1" parent="1" /><mxGeometry x="400" y="1660" width="350" height="40" as_="geometry" /><mxCell id="e1043" style="edgeStyle=orthogonalEdgeStyle;" edge="1" source="m1038" target="s1042" parent="1" /><mxGeometry relative="1" as_="geometry" /><mxCell id="s1044" value="4.3 Xem đơn thuốc &amp; hướng dẫn (BN, BS)" style="rounded=1;fillColor=#e1d5e7;" vertex="1" parent="1" /><mxGeometry x="400" y="1720" width="350" height="40" as_="geometry" /><mxCell id="e1045" style="edgeStyle=orthogonalEdgeStyle;" edge="1" source="m1038" target="s1044" parent="1" /><mxGeometry relative="1" as_="geometry" /><mxCell id="s1046" value="4.4 Lưu lịch sử khám (BN, BS)" style="rounded=1;fillColor=#e1d5e7;" vertex="1" parent="1" /><mxGeometry x="400" y="1780" width="350" height="40" as_="geometry" /><mxCell id="e1047" style="edgeStyle=orthogonalEdgeStyle;" edge="1" source="m1038" target="s1046" parent="1" /><mxGeometry relative="1" as_="geometry" /><mxCell id="s1048" value="4.5 Cập nhật hồ sơ (BS)" style="rounded=1;fillColor=#e1d5e7;" vertex="1" parent="1" /><mxGeometry x="400" y="1840" width="350" height="40" as_="geometry" /><mxCell id="e1049" style="edgeStyle=orthogonalEdgeStyle;" edge="1" source="m1038" target="s1048" parent="1" /><mxGeometry relative="1" as_="geometry" /><mxCell id="s1050" value="4.6 Tải kết quả xét nghiệm (BS)" style="rounded=1;fillColor=#e1d5e7;" vertex="1" parent="1" /><mxGeometry x="400" y="1900" width="350" height="40" as_="geometry" /><mxCell id="e1051" style="edgeStyle=orthogonalEdgeStyle;" edge="1" source="m1038" target="s1050" parent="1" /><mxGeometry relative="1" as_="geometry" /><mxCell id="m1052" value="5. Tư vấn trực tuyến" style="rounded=1;fillColor=#fff2cc;" vertex="1" parent="1" /><mxGeometry x="80" y="2100" width="250" height="50" as_="geometry" /><mxCell id="e1053" style="edgeStyle=orthogonalEdgeStyle;" edge="1" source="root1" target="m1052" parent="1" /><mxGeometry relative="1" as_="geometry" /><mxCell id="s1054" value="5.1 Gửi câu hỏi tư vấn (BN)" style="rounded=1;fillColor=#e1d5e7;" vertex="1" parent="1" /><mxGeometry x="400" y="2100" width="350" height="40" as_="geometry" /><mxCell id="e1055" style="edgeStyle=orthogonalEdgeStyle;" edge="1" source="m1052" target="s1054" parent="1" /><mxGeometry relative="1" as_="geometry" /><mxCell id="s1056" value="5.2 Chat với bác sĩ (BN, BS)" style="rounded=1;fillColor=#e1d5e7;" vertex="1" parent="1" /><mxGeometry x="400" y="2160" width="350" height="40" as_="geometry" /><mxCell id="e1057" style="edgeStyle=orthogonalEdgeStyle;" edge="1" source="m1052" target="s1056" parent="1" /><mxGeometry relative="1" as_="geometry" /><mxCell id="s1058" value="5.3 Xem lịch sử tư vấn (BN, BS)" style="rounded=1;fillColor=#e1d5e7;" vertex="1" parent="1" /><mxGeometry x="400" y="2220" width="350" height="40" as_="geometry" /><mxCell id="e1059" style="edgeStyle=orthogonalEdgeStyle;" edge="1" source="m1052" target="s1058" parent="1" /><mxGeometry relative="1" as_="geometry" /><mxCell id="s1060" value="5.4 Trả lời câu hỏi (BS)" style="rounded=1;fillColor=#e1d5e7;" vertex="1" parent="1" /><mxGeometry x="400" y="2280" width="350" height="40" as_="geometry" /><mxCell id="e1061" style="edgeStyle=orthogonalEdgeStyle;" edge="1" source="m1052" target="s1060" parent="1" /><mxGeometry relative="1" as_="geometry" /><mxCell id="m1062" value="6. Dịch vụ khám tại nhà" style="rounded=1;fillColor=#fff2cc;" vertex="1" parent="1" /><mxGeometry x="80" y="2600" width="250" height="50" as_="geometry" /><mxCell id="e1063" style="edgeStyle=orthogonalEdgeStyle;" edge="1" source="root1" target="m1062" parent="1" /><mxGeometry relative="1" as_="geometry" /><mxCell id="s1064" value="6.1 Đặt yêu cầu khám (BN)" style="rounded=1;fillColor=#e1d5e7;" vertex="1" parent="1" /><mxGeometry x="400" y="2600" width="350" height="40" as_="geometry" /><mxCell id="e1065" style="edgeStyle=orthogonalEdgeStyle;" edge="1" source="m1062" target="s1064" parent="1" /><mxGeometry relative="1" as_="geometry" /><mxCell id="s1066" value="6.2 Chọn loại dịch vụ (BN)" style="rounded=1;fillColor=#e1d5e7;" vertex="1" parent="1" /><mxGeometry x="400" y="2660" width="350" height="40" as_="geometry" /><mxCell id="e1067" style="edgeStyle=orthogonalEdgeStyle;" edge="1" source="m1062" target="s1066" parent="1" /><mxGeometry relative="1" as_="geometry" /><mxCell id="s1068" value="6.3 Theo dõi trạng thái (BN)" style="rounded=1;fillColor=#e1d5e7;" vertex="1" parent="1" /><mxGeometry x="400" y="2720" width="350" height="40" as_="geometry" /><mxCell id="e1069" style="edgeStyle=orthogonalEdgeStyle;" edge="1" source="m1062" target="s1068" parent="1" /><mxGeometry relative="1" as_="geometry" /><mxCell id="m1070" value="7. Thanh toán trực tuyến" style="rounded=1;fillColor=#fff2cc;" vertex="1" parent="1" /><mxGeometry x="80" y="3100" width="250" height="50" as_="geometry" /><mxCell id="e1071" style="edgeStyle=orthogonalEdgeStyle;" edge="1" source="root1" target="m1070" parent="1" /><mxGeometry relative="1" as_="geometry" /><mxCell id="s1072" value="7.1 Xem chi phí (BN)" style="rounded=1;fillColor=#e1d5e7;" vertex="1" parent="1" /><mxGeometry x="400" y="3100" width="350" height="40" as_="geometry" /><mxCell id="e1073" style="edgeStyle=orthogonalEdgeStyle;" edge="1" source="m1070" target="s1072" parent="1" /><mxGeometry relative="1" as_="geometry" /><mxCell id="s1074" value="7.2 Thanh toán online (BN)" style="rounded=1;fillColor=#e1d5e7;" vertex="1" parent="1" /><mxGeometry x="400" y="3160" width="350" height="40" as_="geometry" /><mxCell id="e1075" style="edgeStyle=orthogonalEdgeStyle;" edge="1" source="m1070" target="s1074" parent="1" /><mxGeometry relative="1" as_="geometry" /><mxCell id="s1076" value="7.3 Xem lịch sử thanh toán (BN)" style="rounded=1;fillColor=#e1d5e7;" vertex="1" parent="1" /><mxGeometry x="400" y="3220" width="350" height="40" as_="geometry" /><mxCell id="e1077" style="edgeStyle=orthogonalEdgeStyle;" edge="1" source="m1070" target="s1076" parent="1" /><mxGeometry relative="1" as_="geometry" /><mxCell id="m1078" value="8. Mua thuốc trực tuyến" style="rounded=1;fillColor=#fff2cc;" vertex="1" parent="1" /><mxGeometry x="80" y="3600" width="250" height="50" as_="geometry" /><mxCell id="e1079" style="edgeStyle=orthogonalEdgeStyle;" edge="1" source="root1" target="m1078" parent="1" /><mxGeometry relative="1" as_="geometry" /><mxCell id="s1080" value="8.1 Tra cứu thuốc kê đơn (BN)" style="rounded=1;fillColor=#e1d5e7;" vertex="1" parent="1" /><mxGeometry x="400" y="3600" width="350" height="40" as_="geometry" /><mxCell id="e1081" style="edgeStyle=orthogonalEdgeStyle;" edge="1" source="m1078" target="s1080" parent="1" /><mxGeometry relative="1" as_="geometry" /><mxCell id="s1082" value="8.2 Đặt mua thuốc (BN)" style="rounded=1;fillColor=#e1d5e7;" vertex="1" parent="1" /><mxGeometry x="400" y="3660" width="350" height="40" as_="geometry" /><mxCell id="e1083" style="edgeStyle=orthogonalEdgeStyle;" edge="1" source="m1078" target="s1082" parent="1" /><mxGeometry relative="1" as_="geometry" /><mxCell id="s1084" value="8.3 Theo dõi đơn hàng (BN)" style="rounded=1;fillColor=#e1d5e7;" vertex="1" parent="1" /><mxGeometry x="400" y="3720" width="350" height="40" as_="geometry" /><mxCell id="e1085" style="edgeStyle=orthogonalEdgeStyle;" edge="1" source="m1078" target="s1084" parent="1" /><mxGeometry relative="1" as_="geometry" /><mxCell id="m1086" value="9. Thông báo và nhắc nhở" style="rounded=1;fillColor=#fff2cc;" vertex="1" parent="1" /><mxGeometry x="80" y="4100" width="250" height="50" as_="geometry" /><mxCell id="e1087" style="edgeStyle=orthogonalEdgeStyle;" edge="1" source="root1" target="m1086" parent="1" /><mxGeometry relative="1" as_="geometry" /><mxCell id="s1088" value="9.1 Nhắc lịch khám (BN, BS)" style="rounded=1;fillColor=#e1d5e7;" vertex="1" parent="1" /><mxGeometry x="400" y="4100" width="350" height="40" as_="geometry" /><mxCell id="e1089" style="edgeStyle=orthogonalEdgeStyle;" edge="1" source="m1086" target="s1088" parent="1" /><mxGeometry relative="1" as_="geometry" /><mxCell id="s1090" value="9.2 Nhắc giờ uống thuốc (BN)" style="rounded=1;fillColor=#e1d5e7;" vertex="1" parent="1" /><mxGeometry x="400" y="4160" width="350" height="40" as_="geometry" /><mxCell id="e1091" style="edgeStyle=orthogonalEdgeStyle;" edge="1" source="m1086" target="s1090" parent="1" /><mxGeometry relative="1" as_="geometry" /><mxCell id="s1092" value="9.3 Thông báo xét nghiệm (BN, BS)" style="rounded=1;fillColor=#e1d5e7;" vertex="1" parent="1" /><mxGeometry x="400" y="4220" width="350" height="40" as_="geometry" /><mxCell id="e1093" style="edgeStyle=orthogonalEdgeStyle;" edge="1" source="m1086" target="s1092" parent="1" /><mxGeometry relative="1" as_="geometry" /><mxCell id="s1094" value="9.4 Tin tức y tế (BN, BS)" style="rounded=1;fillColor=#e1d5e7;" vertex="1" parent="1" /><mxGeometry x="400" y="4280" width="350" height="40" as_="geometry" /><mxCell id="e1095" style="edgeStyle=orthogonalEdgeStyle;" edge="1" source="m1086" target="s1094" parent="1" /><mxGeometry relative="1" as_="geometry" /><mxCell id="m1096" value="10. Tìm kiếm thông tin" style="rounded=1;fillColor=#fff2cc;" vertex="1" parent="1" /><mxGeometry x="80" y="4600" width="250" height="50" as_="geometry" /><mxCell id="e1097" style="edgeStyle=orthogonalEdgeStyle;" edge="1" source="root1" target="m1096" parent="1" /><mxGeometry relative="1" as_="geometry" /><mxCell id="s1098" value="10.1 Tìm bác sĩ theo chuyên khoa (BN)" style="rounded=1;fillColor=#e1d5e7;" vertex="1" parent="1" /><mxGeometry x="400" y="4600" width="350" height="40" as_="geometry" /><mxCell id="e1099" style="edgeStyle=orthogonalEdgeStyle;" edge="1" source="m1096" target="s1098" parent="1" /><mxGeometry relative="1" as_="geometry" /><mxCell id="s1100" value="10.2 Tìm phòng khám (BN)" style="rounded=1;fillColor=#e1d5e7;" vertex="1" parent="1" /><mxGeometry x="400" y="4660" width="350" height="40" as_="geometry" /><mxCell id="e1101" style="edgeStyle=orthogonalEdgeStyle;" edge="1" source="m1096" target="s1100" parent="1" /><mxGeometry relative="1" as_="geometry" /><mxCell id="s1102" value="10.3 Tìm thuốc (BN)" style="rounded=1;fillColor=#e1d5e7;" vertex="1" parent="1" /><mxGeometry x="400" y="4720" width="350" height="40" as_="geometry" /><mxCell id="e1103" style="edgeStyle=orthogonalEdgeStyle;" edge="1" source="m1096" target="s1102" parent="1" /><mxGeometry relative="1" as_="geometry" /><mxCell id="s1104" value="10.4 Tìm lịch sử khám (BN, BS)" style="rounded=1;fillColor=#e1d5e7;" vertex="1" parent="1" /><mxGeometry x="400" y="4780" width="350" height="40" as_="geometry" /><mxCell id="e1105" style="edgeStyle=orthogonalEdgeStyle;" edge="1" source="m1096" target="s1104" parent="1" /><mxGeometry relative="1" as_="geometry" /><mxCell id="s1106" value="10.5 Tìm bệnh nhân theo mã (BS)" style="rounded=1;fillColor=#e1d5e7;" vertex="1" parent="1" /><mxGeometry x="400" y="4840" width="350" height="40" as_="geometry" /><mxCell id="e1107" style="edgeStyle=orthogonalEdgeStyle;" edge="1" source="m1096" target="s1106" parent="1" /><mxGeometry relative="1" as_="geometry" /><mxCell id="m1108" value="11. Đánh giá và phản hồi" style="rounded=1;fillColor=#fff2cc;" vertex="1" parent="1" /><mxGeometry x="80" y="5100" width="250" height="50" as_="geometry" /><mxCell id="e1109" style="edgeStyle=orthogonalEdgeStyle;" edge="1" source="root1" target="m1108" parent="1" /><mxGeometry relative="1" as_="geometry" /><mxCell id="s1110" value="11.1 Đánh giá dịch vụ (BN)" style="rounded=1;fillColor=#e1d5e7;" vertex="1" parent="1" /><mxGeometry x="400" y="5100" width="350" height="40" as_="geometry" /><mxCell id="e1111" style="edgeStyle=orthogonalEdgeStyle;" edge="1" source="m1108" target="s1110" parent="1" /><mxGeometry relative="1" as_="geometry" /><mxCell id="s1112" value="11.2 Đánh giá bác sĩ (BN)" style="rounded=1;fillColor=#e1d5e7;" vertex="1" parent="1" /><mxGeometry x="400" y="5160" width="350" height="40" as_="geometry" /><mxCell id="e1113" style="edgeStyle=orthogonalEdgeStyle;" edge="1" source="m1108" target="s1112" parent="1" /><mxGeometry relative="1" as_="geometry" /><mxCell id="s1114" value="11.3 Góp ý ứng dụng (BN)" style="rounded=1;fillColor=#e1d5e7;" vertex="1" parent="1" /><mxGeometry x="400" y="5220" width="350" height="40" as_="geometry" /><mxCell id="e1115" style="edgeStyle=orthogonalEdgeStyle;" edge="1" source="m1108" target="s1114" parent="1" /><mxGeometry relative="1" as_="geometry" /><mxCell id="s1116" value="11.4 Xem đánh giá (BS)" style="rounded=1;fillColor=#e1d5e7;" vertex="1" parent="1" /><mxGeometry x="400" y="5280" width="350" height="40" as_="geometry" /><mxCell id="e1117" style="edgeStyle=orthogonalEdgeStyle;" edge="1" source="m1108" target="s1116" parent="1" /><mxGeometry relative="1" as_="geometry" /><mxCell id="m1118" value="12. Hỗ trợ khách hàng" style="rounded=1;fillColor=#fff2cc;" vertex="1" parent="1" /><mxGeometry x="80" y="5600" width="250" height="50" as_="geometry" /><mxCell id="e1119" style="edgeStyle=orthogonalEdgeStyle;" edge="1" source="root1" target="m1118" parent="1" /><mxGeometry relative="1" as_="geometry" /><mxCell id="s1120" value="12.1 Liên hệ tổng đài (BN, BS)" style="rounded=1;fillColor=#e1d5e7;" vertex="1" parent="1" /><mxGeometry x="400" y="5600" width="350" height="40" as_="geometry" /><mxCell id="e1121" style="edgeStyle=orthogonalEdgeStyle;" edge="1" source="m1118" target="s1120" parent="1" /><mxGeometry relative="1" as_="geometry" /><mxCell id="s1122" value="12.2 Gửi yêu cầu hỗ trợ (BN, BS)" style="rounded=1;fillColor=#e1d5e7;" vertex="1" parent="1" /><mxGeometry x="400" y="5660" width="350" height="40" as_="geometry" /><mxCell id="e1123" style="edgeStyle=orthogonalEdgeStyle;" edge="1" source="m1118" target="s1122" parent="1" /><mxGeometry relative="1" as_="geometry" /><mxCell id="s1124" value="12.3 Xem FAQ (BN, BS)" style="rounded=1;fillColor=#e1d5e7;" vertex="1" parent="1" /><mxGeometry x="400" y="5720" width="350" height="40" as_="geometry" /><mxCell id="e1125" style="edgeStyle=orthogonalEdgeStyle;" edge="1" source="m1118" target="s1124" parent="1" /><mxGeometry relative="1" as_="geometry" /><mxCell id="m1126" value="13. Cài đặt ứng dụng" style="rounded=1;fillColor=#fff2cc;" vertex="1" parent="1" /><mxGeometry x="80" y="6100" width="250" height="50" as_="geometry" /><mxCell id="e1127" style="edgeStyle=orthogonalEdgeStyle;" edge="1" source="root1" target="m1126" parent="1" /><mxGeometry relative="1" as_="geometry" /><mxCell id="s1128" value="13.1 Tùy chỉnh thông báo (BN, BS)" style="rounded=1;fillColor=#e1d5e7;" vertex="1" parent="1" /><mxGeometry x="400" y="6100" width="350" height="40" as_="geometry" /><mxCell id="e1129" style="edgeStyle=orthogonalEdgeStyle;" edge="1" source="m1126" target="s1128" parent="1" /><mxGeometry relative="1" as_="geometry" /><mxCell id="s1130" value="13.2 Cập nhật phiên bản (BN, BS)" style="rounded=1;fillColor=#e1d5e7;" vertex="1" parent="1" /><mxGeometry x="400" y="6160" width="350" height="40" as_="geometry" /><mxCell id="e1131" style="edgeStyle=orthogonalEdgeStyle;" edge="1" source="m1126" target="s1130" parent="1" /><mxGeometry relative="1" as_="geometry" /><mxCell id="s1132" value="13.3 Quyền riêng tư &amp; bảo mật (BN, BS)" style="rounded=1;fillColor=#e1d5e7;" vertex="1" parent="1" /><mxGeometry x="400" y="6220" width="350" height="40" as_="geometry" /><mxCell id="e1133" style="edgeStyle=orthogonalEdgeStyle;" edge="1" source="m1126" target="s1132" parent="1" /><mxGeometry relative="1" as_="geometry" /><mxCell id="s1134" value="13.4 Đổi ngôn ngữ (BN, BS)" style="rounded=1;fillColor=#e1d5e7;" vertex="1" parent="1" /><mxGeometry x="400" y="6280" width="350" height="40" as_="geometry" /><mxCell id="e1135" style="edgeStyle=orthogonalEdgeStyle;" edge="1" source="m1126" target="s1134" parent="1" /><mxGeometry relative="1" as_="geometry" /><mxCell id="m1136" value="14. Đặt lịch tiêm chủng" style="rounded=1;fillColor=#fff2cc;" vertex="1" parent="1" /><mxGeometry x="80" y="6600" width="250" height="50" as_="geometry" /><mxCell id="e1137" style="edgeStyle=orthogonalEdgeStyle;" edge="1" source="root1" target="m1136" parent="1" /><mxGeometry relative="1" as_="geometry" /><mxCell id="s1138" value="14.1 Chọn loại vắc-xin (BN)" style="rounded=1;fillColor=#e1d5e7;" vertex="1" parent="1" /><mxGeometry x="400" y="6600" width="350" height="40" as_="geometry" /><mxCell id="e1139" style="edgeStyle=orthogonalEdgeStyle;" edge="1" source="m1136" target="s1138" parent="1" /><mxGeometry relative="1" as_="geometry" /><mxCell id="s1140" value="14.2 Chọn thời gian &amp; địa điểm (BN)" style="rounded=1;fillColor=#e1d5e7;" vertex="1" parent="1" /><mxGeometry x="400" y="6660" width="350" height="40" as_="geometry" /><mxCell id="e1141" style="edgeStyle=orthogonalEdgeStyle;" edge="1" source="m1136" target="s1140" parent="1" /><mxGeometry relative="1" as_="geometry" /><mxCell id="s1142" value="14.3 Nhận xác nhận (BN)" style="rounded=1;fillColor=#e1d5e7;" vertex="1" parent="1" /><mxGeometry x="400" y="6720" width="350" height="40" as_="geometry" /><mxCell id="e1143" style="edgeStyle=orthogonalEdgeStyle;" edge="1" source="m1136" target="s1142" parent="1" /><mxGeometry relative="1" as_="geometry" /><mxCell id="m1144" value="15. Gọi cấp cứu" style="rounded=1;fillColor=#fff2cc;" vertex="1" parent="1" /><mxGeometry x="80" y="7100" width="250" height="50" as_="geometry" /><mxCell id="e1145" style="edgeStyle=orthogonalEdgeStyle;" edge="1" source="root1" target="m1144" parent="1" /><mxGeometry relative="1" as_="geometry" /><mxCell id="s1146" value="15.1 Gọi bệnh viện gần nhất (BN)" style="rounded=1;fillColor=#e1d5e7;" vertex="1" parent="1" /><mxGeometry x="400" y="7100" width="350" height="40" as_="geometry" /><mxCell id="e1147" style="edgeStyle=orthogonalEdgeStyle;" edge="1" source="m1144" target="s1146" parent="1" /><mxGeometry relative="1" as_="geometry" /><mxCell id="s1148" value="15.2 Gọi 115 (BN)" style="rounded=1;fillColor=#e1d5e7;" vertex="1" parent="1" /><mxGeometry x="400" y="7160" width="350" height="40" as_="geometry" /><mxCell id="e1149" style="edgeStyle=orthogonalEdgeStyle;" edge="1" source="m1144" target="s1148" parent="1" /><mxGeometry relative="1" as_="geometry" /><mxCell id="m1150" value="16. ChatBot tư vấn" style="rounded=1;fillColor=#fff2cc;" vertex="1" parent="1" /><mxGeometry x="80" y="7600" width="250" height="50" as_="geometry" /><mxCell id="e1151" style="edgeStyle=orthogonalEdgeStyle;" edge="1" source="root1" target="m1150" parent="1" /><mxGeometry relative="1" as_="geometry" /><mxCell id="s1152" value="16.1 Trả lời câu hỏi y tế cơ bản (BN)" style="rounded=1;fillColor=#e1d5e7;" vertex="1" parent="1" /><mxGeometry x="400" y="7600" width="350" height="40" as_="geometry" /><mxCell id="e1153" style="edgeStyle=orthogonalEdgeStyle;" edge="1" source="m1150" target="s1152" parent="1" /><mxGeometry relative="1" as_="geometry" /><mxCell id="s1154" value="16.2 Hướng dẫn sử dụng (BN)" style="rounded=1;fillColor=#e1d5e7;" vertex="1" parent="1" /><mxGeometry x="400" y="7660" width="350" height="40" as_="geometry" /><mxCell id="e1155" style="edgeStyle=orthogonalEdgeStyle;" edge="1" source="m1150" target="s1154" parent="1" /><mxGeometry relative="1" as_="geometry" /><mxCell id="m1156" value="17. Quản lý đơn thuốc" style="rounded=1;fillColor=#fff2cc;" vertex="1" parent="1" /><mxGeometry x="80" y="8100" width="250" height="50" as_="geometry" /><mxCell id="e1157" style="edgeStyle=orthogonalEdgeStyle;" edge="1" source="root1" target="m1156" parent="1" /><mxGeometry relative="1" as_="geometry" /><mxCell id="s1158" value="17.1 Tạo đơn thuốc (BS)" style="rounded=1;fillColor=#e1d5e7;" vertex="1" parent="1" /><mxGeometry x="400" y="8100" width="350" height="40" as_="geometry" /><mxCell id="e1159" style="edgeStyle=orthogonalEdgeStyle;" edge="1" source="m1156" target="s1158" parent="1" /><mxGeometry relative="1" as_="geometry" /><mxCell id="s1160" value="17.2 Chỉnh sửa / hủy đơn (BS)" style="rounded=1;fillColor=#e1d5e7;" vertex="1" parent="1" /><mxGeometry x="400" y="8160" width="350" height="40" as_="geometry" /><mxCell id="e1161" style="edgeStyle=orthogonalEdgeStyle;" edge="1" source="m1156" target="s1160" parent="1" /><mxGeometry relative="1" as_="geometry" /><mxCell id="s1162" value="17.3 Xem danh sách đơn (BS)" style="rounded=1;fillColor=#e1d5e7;" vertex="1" parent="1" /><mxGeometry x="400" y="8220" width="350" height="40" as_="geometry" /><mxCell id="e1163" style="edgeStyle=orthogonalEdgeStyle;" edge="1" source="m1156" target="s1162" parent="1" /><mxGeometry relative="1" as_="geometry" /><mxCell id="m1164" value="18. Quản lý lịch làm việc" style="rounded=1;fillColor=#fff2cc;" vertex="1" parent="1" /><mxGeometry x="80" y="8600" width="250" height="50" as_="geometry" /><mxCell id="e1165" style="edgeStyle=orthogonalEdgeStyle;" edge="1" source="root1" target="m1164" parent="1" /><mxGeometry relative="1" as_="geometry" /><mxCell id="s1166" value="18.1 Thiết lập lịch (BS)" style="rounded=1;fillColor=#e1d5e7;" vertex="1" parent="1" /><mxGeometry x="400" y="8600" width="350" height="40" as_="geometry" /><mxCell id="e1167" style="edgeStyle=orthogonalEdgeStyle;" edge="1" source="m1164" target="s1166" parent="1" /><mxGeometry relative="1" as_="geometry" /><mxCell id="s1168" value="18.2 Chỉnh sửa lịch (BS)" style="rounded=1;fillColor=#e1d5e7;" vertex="1" parent="1" /><mxGeometry x="400" y="8660" width="350" height="40" as_="geometry" /><mxCell id="e1169" style="edgeStyle=orthogonalEdgeStyle;" edge="1" source="m1164" target="s1168" parent="1" /><mxGeometry relative="1" as_="geometry" /><mxCell id="s1170" value="18.3 Nhận thông báo lịch (BS)" style="rounded=1;fillColor=#e1d5e7;" vertex="1" parent="1" /><mxGeometry x="400" y="8720" width="350" height="40" as_="geometry" /><mxCell id="e1171" style="edgeStyle=orthogonalEdgeStyle;" edge="1" source="m1164" target="s1170" parent="1" /><mxGeometry relative="1" as_="geometry" /></root></mxGraphModel></diagram></mxfile>